<?xml version="1.0" encoding="iso-8859-1"?>
<!-- Generator: Adobe Illustrator 19.0.0, SVG Export Plug-In . SVG Version: 6.00 Build 0)  -->
<svg version="1.1" id="Layer_1" xmlns="http://www.w3.org/2000/svg" xmlns:xlink="http://www.w3.org/1999/xlink" x="0px" y="0px"
	 viewBox="0 0 512 512" style="enable-background:new 0 0 512 512;" xml:space="preserve">
<path style="fill:#607D8B;" d="M25.6,68.267h460.8c9.429,0,17.067,7.637,17.067,17.067v59.733c0,9.429-7.637,17.067-17.067,17.067
	H25.6c-9.429,0-17.067-7.637-17.067-17.067V85.333C8.533,75.904,16.171,68.267,25.6,68.267z"/>
<path style="fill:#CFD8DC;" d="M25.6,68.267h426.667c9.429,0,17.067,7.637,17.067,17.067v59.733c0,9.429-7.637,17.067-17.067,17.067
	H25.6c-9.429,0-17.067-7.637-17.067-17.067V85.333C8.533,75.904,16.171,68.267,25.6,68.267z"/>
<path d="M486.4,170.667H25.6c-14.14,0-25.6-11.46-25.6-25.6V85.333c0-14.14,11.46-25.6,25.6-25.6h460.8
	c14.14,0,25.6,11.46,25.6,25.6v59.733C512,159.206,500.54,170.667,486.4,170.667z M25.6,76.8c-4.71,0-8.533,3.823-8.533,8.533
	v59.733c0,4.71,3.823,8.533,8.533,8.533h460.8c4.71,0,8.533-3.823,8.533-8.533V85.333c0-4.71-3.823-8.533-8.533-8.533H25.6z"/>
<path style="fill:#607D8B;" d="M486.4,162.133v51.2c0,127.249-103.151,230.4-230.4,230.4l0,0c-5.717,0-11.435,0-17.067-0.683
	C118.656,434.116,25.626,333.943,25.6,213.333v-51.2H486.4z"/>
<path style="fill:#CFD8DC;" d="M452.267,162.133v51.2c-0.026,120.61-93.056,220.783-213.333,229.717
	C118.656,434.116,25.626,333.943,25.6,213.333v-51.2H452.267z"/>
<path d="M256,452.267c-131.959,0-238.933-106.974-238.933-238.933v-51.2c0-4.71,3.823-8.533,8.533-8.533h460.8
	c4.71,0,8.533,3.823,8.533,8.533v51.2C494.933,345.293,387.96,452.267,256,452.267z M34.133,170.667v42.667
	C34.133,335.863,133.47,435.2,256,435.2s221.867-99.337,221.867-221.867v-42.667H34.133z"/>
<circle style="fill:#37474F;" cx="256" cy="324.267" r="76.8"/>
<path d="M256,409.6c-47.13,0-85.333-38.204-85.333-85.333S208.87,238.933,256,238.933s85.333,38.204,85.333,85.333
	S303.13,409.6,256,409.6z M256,256c-37.7,0-68.267,30.566-68.267,68.267S218.3,392.533,256,392.533s68.267-30.566,68.267-68.267
	S293.7,256,256,256z"/>
<path style="fill:#0377BC;" d="M298.667,324.267c0,23.561-19.106,42.667-42.667,42.667c-5.862-0.009-11.674-1.195-17.067-3.499
	c-21.632-9.344-31.59-34.458-22.246-56.09c4.309-9.975,12.271-17.937,22.246-22.246c5.393-2.304,11.204-3.49,17.067-3.499
	C279.561,281.6,298.667,300.706,298.667,324.267z"/>
<path style="fill:#02A9F4;" d="M264.533,324.267c0.026,16.99-10.027,32.375-25.6,39.168c-21.632-9.344-31.59-34.458-22.246-56.09
	c4.309-9.975,12.271-17.937,22.246-22.246C254.507,291.891,264.559,307.277,264.533,324.267z"/>
<path d="M256,375.467c-28.279,0-51.2-22.921-51.2-51.2c0-28.279,22.921-51.2,51.2-51.2c28.279,0,51.2,22.921,51.2,51.2
	C307.2,352.546,284.279,375.467,256,375.467z M256,290.133c-18.85,0-34.133,15.283-34.133,34.133S237.15,358.4,256,358.4
	c18.85,0,34.133-15.283,34.133-34.133S274.85,290.133,256,290.133z"/>
<path d="M59.733,204.8c-4.71,0-8.533-3.823-8.533-8.533s3.823-8.533,8.533-8.533l0,0c4.71,0,8.533,3.823,8.533,8.533
	S64.444,204.8,59.733,204.8z"/>
<path d="M162.133,204.8h-76.8c-4.71,0-8.533-3.823-8.533-8.533s3.823-8.533,8.533-8.533h76.8c4.71,0,8.533,3.823,8.533,8.533
	S166.844,204.8,162.133,204.8z"/>
<g>
</g>
<g>
</g>
<g>
</g>
<g>
</g>
<g>
</g>
<g>
</g>
<g>
</g>
<g>
</g>
<g>
</g>
<g>
</g>
<g>
</g>
<g>
</g>
<g>
</g>
<g>
</g>
<g>
</g>
</svg>
